<?xml version="1.0" encoding="UTF-8" standalone="no"?>
<!-- Created with Inkscape (http://www.inkscape.org/) -->

<svg
   xmlns:dc="http://purl.org/dc/elements/1.1/"
   xmlns:cc="http://creativecommons.org/ns#"
   xmlns:rdf="http://www.w3.org/1999/02/22-rdf-syntax-ns#"
   xmlns:svg="http://www.w3.org/2000/svg"
   xmlns="http://www.w3.org/2000/svg"
   xmlns:sodipodi="http://sodipodi.sourceforge.net/DTD/sodipodi-0.dtd"
   xmlns:inkscape="http://www.inkscape.org/namespaces/inkscape"
   width="209.31641mm"
   height="362.59976mm"
   viewBox="0 0 209.31641 362.59976"
   version="1.1"
   id="svg5203"
   inkscape:version="0.92.3 (2405546, 2018-03-11)"
   sodipodi:docname="distillation_grey.svg">
  <defs
     id="defs5197" />
  <sodipodi:namedview
     id="base"
     pagecolor="#ffffff"
     bordercolor="#666666"
     borderopacity="1.0"
     inkscape:pageopacity="0.0"
     inkscape:pageshadow="2"
     inkscape:zoom="0.49497475"
     inkscape:cx="-104.43259"
     inkscape:cy="637.06733"
     inkscape:document-units="mm"
     inkscape:current-layer="layer1"
     showgrid="false"
     fit-margin-top="0"
     fit-margin-left="0"
     fit-margin-right="0"
     fit-margin-bottom="0"
     inkscape:window-width="1920"
     inkscape:window-height="1046"
     inkscape:window-x="-11"
     inkscape:window-y="-11"
     inkscape:window-maximized="1" />
  <metadata
     id="metadata5200">
    <rdf:RDF>
      <cc:Work
         rdf:about="">
        <dc:format>image/svg+xml</dc:format>
        <dc:type
           rdf:resource="http://purl.org/dc/dcmitype/StillImage" />
        <dc:title />
      </cc:Work>
    </rdf:RDF>
  </metadata>
  <g
     inkscape:label="Layer 1"
     inkscape:groupmode="layer"
     id="layer1"
     transform="translate(104.6582,120.47494)">
    <path
       sodipodi:nodetypes="cccccssccssccccc"
       inkscape:connector-curvature="0"
       d="M -8.175898,-79.308813 H 46.094 l -0.016,-0.479769 v -14.165053 -0.29701 h -5.4355 c -8.2182,0 -14.8344,-1.998492 -14.8344,-5.23848 v -3.376715 l -0.5548,-0.0113 h -45.253999 c -1.334801,0 -2.9089,1.41737 -2.9089,2.75225 v 10.990045 l 0.041,0.469281 c 2.516701,0.40223 4.890899,1.19889 6.912401,2.32946 3.030699,1.74979 5.525,4.183711 7.3333,7.042851 z"
       style="fill:none;stroke:#9ea1a6;stroke-width:2;stroke-linecap:butt;stroke-linejoin:miter;stroke-miterlimit:4;stroke-dasharray:none;stroke-opacity:1"
       id="path4544-4-5-1-5" />
    <path
       sodipodi:nodetypes="sccssccssccccss"
       inkscape:connector-curvature="0"
       d="m 46.0897,151.88686 c 0,3.25459 -0.012,38.67717 -0.012,41.93096 v 0.29703 h -5.4355 c -8.2182,0 -14.8344,2.80933 -14.8344,5.23847 v 3.37672 l -0.5548,0.0114 h -45.254 c -1.3349,0 -2.908999,-1.41737 -2.908999,-2.75225 v -10.99004 l 0.041,-0.46929 c 9.3159,-1.88857 17.353399,-10.53341 17.572101,-17.04499 V 149.1736 H 43.1884 c 2.8901,0 2.8978,-0.003 2.8978,2.71333 z"
       style="fill:none;stroke:#9ea1a6;stroke-width:2;stroke-linecap:butt;stroke-linejoin:miter;stroke-miterlimit:4;stroke-dasharray:none;stroke-opacity:1"
       id="path4544-4-5-9-1-5" />
    <path
       id="path4546-8-7-9-1-7-3"
       style="fill:none;stroke:#9ea1a6;stroke-width:2;stroke-linecap:butt;stroke-linejoin:miter;stroke-miterlimit:4;stroke-dasharray:none;stroke-opacity:1"
       d="m -37.200899,-86.864976 c -6.5742,3.79557 -10.623999,10.810092 -10.623999,18.401244 V 44.876161 c 0,0 1.98e-4,75.973199 -2.01e-4,86.865799 -2.01e-4,10.89258 0,38.48969 0,38.48969 0,7.59114 4.0499,12.1735 10.623999,15.96908 m 2.01e-4,-273.065706 c 2.1038,-1.182971 4.4176,-1.94383 6.7826,-2.328381 l 0.019,-0.470278 c 0,-4.622461 -0.127799,-9.246691 0,-13.867385 0.130399,-4.71075 3.878601,-7.36725 10.030999,-7.36725 h 45.624 l 0.5548,0.032 v -3.37018 c 0,-2.90213 6.6161,-5.23849 14.8343,-5.23849 h 18.2261 c 8.2182,0 14.8343,2.33636 14.8343,5.23849 v 14.21874 c 0,2.902114 -5.278734,5.218111 -14.8343,5.238484 h -5.3187 l 0.018,0.29703 v 14.231203 l 0.031,0.413599 h 51.057 m -0.067,7.49237 H -5.1879 l -0.495599,0.0186 c 0.233101,1.261464 0.3536,2.553644 0.3536,3.862972 V 44.875151 c 0,0 10e-5,75.975119 -1.01e-4,86.867849 -2.64e-4,10.89273 0,-1.2167 0,-1.2167 0.027,1.29875 -0.03,11.15463 0.141902,11.15463 H 46.1759 c 3.4581,0 7.3935,3.81942 7.3935,7.27756 0,5.37738 0.149,39.9085 0,44.85947 0,0.0991 -0.018,0.29703 -0.018,0.29703 H 58.87 c 8.2182,0 14.8344,2.33638 14.8344,5.23849 v 14.2187 c 0,1.34647 -1.4242,2.57115 -3.7717,3.49721 l 0.01,0.43826 c 0,3.25377 -0.012,10.1568 -0.012,13.41144 0,2.71632 0.01,2.71333 2.8978,2.71333 h 31.7629 m 0.01,7.49239 h -34.761 c -3.4581,0 -7.3936,-3.81942 -7.3936,-7.27755 v -14.85958 -0.32901 c -1.1447,0.0993 -2.3835,0.12663 -3.5765,0.15203 -6.0739,0.12901 -18.226,0 -18.226,0 -8.2182,0 -14.8344,-2.33635 -14.8344,-5.23852 v -3.37015 l -0.5548,0.032 h -45.6239 c -4.826699,0 -10.031,-2.65409 -10.031,-7.36724 -0.127799,-4.62071 0,-9.24493 0,-13.8674 l -0.019,-0.47027 c -2.364899,-0.38454 -4.678698,-1.1454 -6.782599,-2.32839"
       inkscape:connector-curvature="0"
       sodipodi:nodetypes="csczsccccssccssssscccccccccsczcsssccsssccssccssccccsccscccc" />
  </g>
</svg>
