<?xml version="1.0" encoding="UTF-8" standalone="no"?>
<!-- Created with Inkscape (http://www.inkscape.org/) -->

<svg
   xmlns:dc="http://purl.org/dc/elements/1.1/"
   xmlns:cc="http://creativecommons.org/ns#"
   xmlns:rdf="http://www.w3.org/1999/02/22-rdf-syntax-ns#"
   xmlns:svg="http://www.w3.org/2000/svg"
   xmlns="http://www.w3.org/2000/svg"
   xmlns:xlink="http://www.w3.org/1999/xlink"
   xmlns:sodipodi="http://sodipodi.sourceforge.net/DTD/sodipodi-0.dtd"
   xmlns:inkscape="http://www.inkscape.org/namespaces/inkscape"
   width="209.31641mm"
   height="377mm"
   viewBox="0 0 209.31641 377"
   version="1.1"
   id="svg5203"
   inkscape:version="0.92.3 (2405546, 2018-03-11)"
   sodipodi:docname="distillation_grey.svg">
  <defs
     id="defs5197">
    <linearGradient
       id="linearGradient921">
      <stop
         id="stop907"
         offset="0"
         style="stop-color:#1a1b1f;stop-opacity:1" />
      <stop
         style="stop-color:#7e7e81;stop-opacity:1;"
         offset="0.34522724"
         id="stop909" />
      <stop
         id="stop911"
         offset="0.40836501"
         style="stop-color:#c7c9cb;stop-opacity:1;" />
      <stop
         style="stop-color:#f2f2f2;stop-opacity:1;"
         offset="0.74204803"
         id="stop913" />
      <stop
         id="stop915"
         offset="0.81408584"
         style="stop-color:#555758;stop-opacity:1;" />
      <stop
         style="stop-color:#bbb9b5;stop-opacity:1;"
         offset="0.93932986"
         id="stop917" />
      <stop
         id="stop919"
         offset="1"
         style="stop-color:#949696;stop-opacity:1;" />
    </linearGradient>
    <linearGradient
       y2="-513.56293"
       x2="234"
       y1="-513.56293"
       x1="152"
       gradientTransform="matrix(0.26458333,0,0,0.26458333,105.83677,173.89786)"
       gradientUnits="userSpaceOnUse"
       id="linearGradient4595"
       xlink:href="#linearGradient5678" />
    <linearGradient
       id="linearGradient5678">
      <stop
         style="stop-color:#1a1b1f;stop-opacity:1"
         offset="0"
         id="stop5680" />
      <stop
         id="stop5682"
         offset="0.37573075"
         style="stop-color:#7e7e81;stop-opacity:1;" />
      <stop
         style="stop-color:#c7c9cb;stop-opacity:1;"
         offset="0.48529407"
         id="stop5684" />
      <stop
         id="stop5686"
         offset="0.68884188"
         style="stop-color:#f2f2f2;stop-opacity:1;" />
      <stop
         style="stop-color:#555758;stop-opacity:1;"
         offset="0.81408584"
         id="stop5688" />
      <stop
         id="stop5690"
         offset="0.93932986"
         style="stop-color:#bbb9b5;stop-opacity:1;" />
      <stop
         style="stop-color:#949696;stop-opacity:1;"
         offset="1"
         id="stop5692" />
    </linearGradient>
    <linearGradient
       inkscape:collect="always"
       xlink:href="#linearGradient921"
       id="linearGradient905"
       gradientUnits="userSpaceOnUse"
       x1="-8.5467825"
       y1="698.21576"
       x2="860.85699"
       y2="712.35785" />
  </defs>
  <sodipodi:namedview
     id="base"
     pagecolor="#ffffff"
     bordercolor="#666666"
     borderopacity="1.0"
     inkscape:pageopacity="0.0"
     inkscape:pageshadow="2"
     inkscape:zoom="0.49497475"
     inkscape:cx="721.12563"
     inkscape:cy="770.26333"
     inkscape:document-units="mm"
     inkscape:current-layer="layer1"
     showgrid="false"
     fit-margin-top="0"
     fit-margin-left="0"
     fit-margin-right="0"
     fit-margin-bottom="0"
     inkscape:window-width="1920"
     inkscape:window-height="1046"
     inkscape:window-x="-11"
     inkscape:window-y="-11"
     inkscape:window-maximized="1"
     showguides="false" />
  <metadata
     id="metadata5200">
    <rdf:RDF>
      <cc:Work
         rdf:about="">
        <dc:format>image/svg+xml</dc:format>
        <dc:type
           rdf:resource="http://purl.org/dc/dcmitype/StillImage" />
        <dc:title />
      </cc:Work>
    </rdf:RDF>
  </metadata>
  <g
     inkscape:label="Layer 1"
     inkscape:groupmode="layer"
     id="layer1"
     transform="translate(104.6582,134.87518)">
    <path
       sodipodi:nodetypes="cccccsscsccssccccc"
       inkscape:connector-curvature="0"
       d="m -8.175898,-79.214319 h 83.374065 l -0.016,-0.479769 v -8.873389 -0.29701 h -5.4355 c -8.2182,0 -7.426067,-1.99849 -7.426067,-5.23848 v -21.897553 c -0.166663,-2.14559 2.341487,-2.93072 6.451728,-3.28691 3.819065,-0.33096 6.242881,-0.32716 6.242881,-0.32716 l -0.126935,-7.50973 h -94.888972 c -1.334801,0 -2.9089,1.41737 -2.9089,2.75225 v 35.331719 l 0.041,0.469281 c 2.516701,0.40223 4.890899,1.19889 6.912401,2.32946 3.030699,1.74979 5.525,4.183711 7.3333,7.042851 z"
       style="fill:none;stroke:#9ea1a6;stroke-width:2;stroke-linecap:butt;stroke-linejoin:miter;stroke-miterlimit:4;stroke-dasharray:none;stroke-opacity:1"
       id="path4544-4-5-1-5" />
    <path
       sodipodi:nodetypes="sccssccssccccss"
       inkscape:connector-curvature="0"
       d="m 46.0897,151.88686 c 0,3.25459 -0.012,38.67717 -0.012,41.93096 v 0.29703 h -5.4355 c -8.2182,0 -14.8344,2.80933 -14.8344,5.23847 v 3.37672 l -0.5548,0.0114 h -45.254 c -1.3349,0 -2.908999,-1.41737 -2.908999,-2.75225 v -10.99004 l 0.041,-0.46929 c 9.3159,-1.88857 17.353399,-10.53341 17.572101,-17.04499 V 149.1736 H 43.1884 c 2.8901,0 2.8978,-0.003 2.8978,2.71333 z"
       style="fill:none;stroke:#9ea1a6;stroke-width:2;stroke-linecap:butt;stroke-linejoin:miter;stroke-miterlimit:4;stroke-dasharray:none;stroke-opacity:1"
       id="path4544-4-5-9-1-5" />
    <path
       id="path4544-4-5-1-5-4"
       style="fill:none;stroke:#9ea1a6;stroke-width:2;stroke-linecap:butt;stroke-linejoin:miter;stroke-miterlimit:4;stroke-dasharray:none;stroke-opacity:1"
       d="m 82.706267,-79.46564 c -0.03173,4.284634 1.001208,6.785787 -7.219234,7.120616 l -3.499983,-1.56e-4 h -5.387341 v 16.236702 l 38.100001,0.361702 -0.12617,6.35 -34.924999,-0.445435 c -9.033631,0.07831 -9.37381,0.345604 -9.525,-9.970434 V -72.34518 l -65.311437,1.56e-4 -0.495599,0.0186 c 0.233101,1.261464 0.3536,2.553644 0.3536,3.862972 V 44.875151 c 0,0 10e-5,75.975119 -1.01e-4,86.867849 -2.64e-4,10.89273 0,-1.2167 0,-1.2167 0.027,1.29875 -0.03,11.15463 0.141902,11.15463 H 46.1759 c 3.4581,0 7.3935,3.81942 7.3935,7.27756 0,5.37738 0.149,39.9085 0,44.85947 0,0.0991 -0.018,0.29703 -0.018,0.29703 H 58.87 c 8.2182,0 14.8344,2.33638 14.8344,5.23849 v 14.2187 c 0,1.34647 -1.4242,2.57115 -3.7717,3.49721 l 0.01,0.43826 c 0,3.25377 -0.012,10.1568 -0.012,13.41144 0,2.71632 0.01,2.71333 2.8978,2.71333 h 31.7629 l 0.01,7.49239 h -34.761 c -3.4581,0 -7.3936,-3.81942 -7.3936,-7.27755 v -14.85958 -0.32901 c -1.1447,0.0993 -2.3835,0.12663 -3.5765,0.15203 -6.0739,0.12901 -18.226,0 -18.226,0 -8.2182,0 -14.8344,-2.33635 -14.8344,-5.23852 v -3.37015 l -0.5548,0.032 h -45.6239 c -4.826699,0 -10.031,-2.65409 -10.031,-7.36724 -0.127799,-4.62071 0,-9.24493 0,-13.8674 l -0.019,-0.47027 c -2.364899,-0.38454 -4.678698,-1.1454 -6.782599,-2.32839 m 5e-4,-273.065706 c -6.5742,3.79557 -10.623999,10.810092 -10.623999,18.401244 V 44.876161 c 0,0 1.98e-4,75.973199 -2.01e-4,86.865799 -2.01e-4,10.89258 0,38.48969 0,38.48969 0,7.59114 4.0499,12.1735 10.623999,15.96908 m 2.01e-4,-273.065706 c 2.1038,-1.182971 4.4176,-1.94383 6.7826,-2.328381 l 0.019,-0.470278 c 0,-4.622461 -0.127799,-32.530025 0,-37.150715 0.130399,-4.71075 3.878601,-7.36725 10.030999,-7.36725"
       inkscape:connector-curvature="0"
       sodipodi:nodetypes="ccccccccccccscccsssccsssccssccssccccsccscccccsccccccccc" />
    <path
       sodipodi:nodetypes="cccsscscccc"
       inkscape:connector-curvature="0"
       d="m 82.706267,-79.46564 v -9.402553 -0.29701 h 5.4355 c 8.218198,0 6.896893,-1.99849 6.896893,-5.23848 v -21.368377 c 0.16666,-2.14559 -2.573208,-2.96428 -5.922553,-3.28691 -3.440386,-0.3314 -6.24288,-0.32716 -6.24288,-0.32716 l 0.06346,-6.13612 c 0.02493,-11.37969 -0.08759,-8.11001 -18.29913,-8.77412 l -88.180862,0.11477"
       style="fill:none;stroke:#9ea1a6;stroke-width:2;stroke-linecap:butt;stroke-linejoin:miter;stroke-miterlimit:4;stroke-dasharray:none;stroke-opacity:1"
       id="path4544-4-5-1-5-1" />
    <path
       style="fill:#000000;fill-opacity:0;stroke:#aeafb2;stroke-width:4.04061031;stroke-miterlimit:4;stroke-dasharray:none;stroke-opacity:1"
       d="M 441.30469,6.5275714 C 394.77286,7.4883172 347.96553,4.7750424 301.59586,8.9779806 288.85988,11.021798 284.87075,24.204235 285.25745,35.469302 c -2.00604,46.788874 -1.57351,93.655478 -2.52303,140.475848 -30.1611,4.47661 -54.78806,28.93637 -62.63974,57.64183 0.0635,299.96322 -1.64581,599.93234 -0.12782,899.89202 1.08299,19.2846 -3.01643,41.8854 12.37437,56.8448 13.15865,15.1292 31.6859,25.3618 51.39545,28.884 1.18464,21.8682 -2.55397,44.8469 3.30273,66.1176 10.09562,17.735 33.34646,12.5415 50.16401,13.9849 53.24747,0.8019 106.50044,1.1847 159.75041,1.7909 0.32511,9.7683 0.60791,22.5199 12.49276,25.1788 19.77438,9.045 42.68513,3.748 63.70177,5.7206 20.70708,0.2358 41.41428,0.4602 62.12142,0.6915 1.58634,23.6196 -3.4025,48.4725 3.82753,71.3776 9.82906,17.4254 32.84987,11.816 49.26065,13.1177 32.56615,-0.3666 66.00773,1.1209 98.01641,-0.7118 2.75293,-14.2153 -0.94293,-23.4376 -16.95937,-19.0507 -36.58625,-0.9725 -73.54726,1.4361 -109.90772,-2.5382 -3.66954,-11.6129 -1.34585,-28.2263 -2.67194,-41.7946 1.95283,-9.7344 -6.61767,-25.6437 6.13866,-29.0139 12.55185,-4.8133 6.26735,-20.7915 8.18918,-30.9082 -1.61042,-12.4163 5.02064,-31.7568 -9.75967,-38.2793 -21.06659,-8.5425 -44.68454,-5.3076 -66.84369,-7.3394 -0.54896,-61.1507 -0.41069,-122.4498 -1.385,-183.5084 -7.99099,-6.0954 -13.91338,-17.6948 -25.73521,-14.0435 -62.32304,-0.7456 -125.05299,1.5632 -187.1426,-1.4048 -9.21786,-2.6807 -6.22857,-15.1637 -6.86734,-22.5537 -2.31232,-264.21334 -1.59384,-528.44235 -2.22798,-792.66306 85.32895,0 170.65791,0 255.98687,0 1.33239,26.17474 -2.69311,53.13733 2.58455,78.89055 7.22684,7.84912 20.51923,3.12351 29.94945,4.99552 41.974,0.14819 84.66153,1.68916 126.18621,0.39459 7.16184,-16.7634 -6.21375,-16.65715 -19.331,-15.17201 -40.45184,-0.60292 -81.42226,1.31019 -121.58528,-1.5902 -4.39048,-21.70676 -0.92677,-44.75859 -2.05978,-66.96996 18.87897,-1.97919 39.22855,0.94188 57.27486,-5.44141 6.39841,-9.94598 2.05324,-23.6407 3.86271,-34.82583 0.39076,-12.5587 -3.78971,-29.56596 14.59272,-24.61585 9.99613,-1.34387 21.9111,0.66964 30.84871,-4.09928 2.12049,-32.1913 0.72979,-64.995118 -0.35119,-96.982542 -13.73606,-5.722328 -29.08822,-4.700708 -43.59835,-6.427883 -1.53765,-16.80932 3.13644,-35.271668 -3.36979,-51.21 C 688.76806,4.7355287 672.78704,8.2623023 658.46005,6.8282897 586.077,6.320138 513.68913,6.5791692 441.30469,6.5275714 Z m 57.2946,18.7588476 c 61.05372,0 122.10744,0 183.16116,0 0.34309,11.942393 0.68834,23.884851 0.9707,35.828848 -13.86451,2.863488 -30.14544,-1.658664 -42.79338,5.579515 -8.37285,12.775856 -2.99288,29.914591 -4.68306,44.241488 1.10157,18.77556 -2.09823,38.68038 2.71405,56.83296 14.90305,3.40123 30.58871,2.28164 45.78834,3.46845 0,14.11846 0,28.23692 0,42.35539 -107.69964,-0.0731 -215.39925,-0.14807 -323.09888,-0.22492 -13.41762,-17.2903 -31.62365,-32.55393 -54.11024,-35.162 -0.35035,-47.80994 -0.70154,-95.619884 -1.05356,-143.42982 6.8207,-12.217542 19.80022,-9.566377 31.71327,-9.489911 53.7972,0 107.59439,0 161.3916,0 z M 470.13349,1069.7841 c 33.3913,0.7747 67.21772,-1.4593 100.34446,2.2453 4.1417,46.2892 1.23428,93.2482 2.16237,139.7877 -1.33872,11.3921 2.68416,28.1458 -2.02031,36.1722 -23.72745,0.6935 -51.94871,-3.1916 -71.70505,12.9386 -6.68385,5.9357 2.37986,21.6675 -9.10715,19.3819 -58.40193,-0.882 -117.28048,1.781 -175.40747,-2.1541 -12.64022,-5.8669 -7.49516,-22.8445 -8.85857,-33.7178 2.41124,-9.3068 -6.45131,-27.2509 7.99441,-27.3372 24.3934,-7.7676 47.40786,-25.9297 56.3673,-50.3656 3.21539,-32.1626 1.42335,-64.6616 2.55695,-96.951 32.55769,0 65.11538,0 97.67306,0 z"
       id="path883"
       inkscape:connector-curvature="0"
       transform="matrix(0.26458333,0,0,0.26458333,-104.6582,-134.87518)" />
    <path
       style="fill:url(#linearGradient905);fill-opacity:1;stroke:#aeafb2;stroke-width:4.04061031;stroke-miterlimit:4;stroke-dasharray:none;stroke-opacity:1"
       d="m 299.86913,10.163331 c -12.59938,7.963138 -13.5009,23.299727 -12.85921,36.68263 -1.47625,43.467687 -1.95836,86.960709 -2.85734,130.442379 -26.81777,5.87031 -53.67492,24.93952 -59.60295,52.92253 -3.65893,86.35701 -1.56109,172.89116 -2.38167,259.31714 0.20846,220.31078 -1.49152,440.63798 0.86261,660.93819 -1.32509,15.3503 2.56086,31.1785 14.43008,41.694 12.62915,12.874 29.13012,22.5138 47.22857,24.725 2.28907,22.92 -1.8858,47.3216 5.95833,69.3454 8.98685,14.3619 29.03914,8.4015 43.02945,10.5841 55.20293,1.1888 110.4144,2.0174 165.62624,2.6703 -2.34816,11.521 3.45202,24.4009 15.7205,26.7572 33.21729,6.0052 67.51763,2.4424 101.14153,3.5552 15.60839,-2.9184 24.41819,1.1509 20.62311,18.1759 2.14116,19.3037 -2.47033,41.0206 7.08505,58.7338 11.89798,11.6015 30.95228,5.8139 45.85535,7.7678 31.30279,-0.6546 62.95739,1.956 94.06261,-1.5254 5.53188,-4.2046 -1.71497,-14.3467 -8.16803,-12.8557 -39.04876,-3.2177 -78.72115,0.6134 -117.50521,-4.3405 -4.43196,-22.2387 -2.71646,-45.2947 -4.23791,-67.8736 7.07232,-4.2532 16.55963,-8.8573 14.22107,-18.9403 -0.44507,-15.715 3.16204,-32.675 -2.39911,-47.6272 -11.9753,-10.957 -30.55631,-8.5179 -45.5871,-10.7526 -8.82972,-3.1392 -29.23522,4.7976 -28.29611,-7.5722 -0.20358,-59.6229 0.40528,-119.4321 -0.30383,-178.939 -9.14311,-8.8685 -19.07891,-15.7237 -32.39196,-12.6348 -59.43082,-0.746 -119.22119,1.5771 -178.44186,-1.46 -10.96093,-1.4249 -6.37362,-16.4998 -8.13013,-23.828 -4.22979,-234.15608 -2.48957,-468.3773 -2.96577,-702.56244 0,-30.93723 0,-61.87447 0,-92.81172 86.18522,0 172.37042,0 258.55565,0 1.80753,26.76977 -1.42638,54.41152 4.11558,80.70567 15.13968,4.97912 32.46879,2.03374 48.36445,3.39296 34.87788,0.44582 69.75887,0.59011 104.63815,0.89625 5.12973,-15.55839 -14.01846,-10.18656 -23.51136,-11.15596 -39.60273,-0.88859 -79.34502,-0.32479 -118.83334,-3.09273 -2.84806,-22.7136 -2.11657,-45.70883 -3.09753,-68.56804 18.97493,-4.24878 39.63667,-0.0522 57.88253,-6.58177 7.22758,-18.2439 0.85261,-39.9322 8.72044,-57.80362 12.21719,-5.87134 28.1459,1.2387 39.71162,-5.76102 4.27715,-24.05542 1.07283,-49.13385 1.26878,-73.546016 -1.45596,-6.350681 1.47039,-15.459742 -2.96945,-20.473147 -13.52319,-3.644443 -27.66474,-4.042889 -41.49519,-5.859675 -1.05019,-16.476774 2.05851,-34.188134 -2.60033,-50.057793 C 672.31201,8.3330973 643.25523,11.209491 614.86316,10.08321 509.87946,9.9734342 404.78402,9.7049786 299.86913,10.163331 Z m 382.85965,12.496692 c 0.38619,12.844562 3.15,26.289729 1.54285,38.886927 -13.46919,4.391141 -29.33014,0.179698 -41.9963,6.696206 -8.62624,14.717389 -4.22543,33.437744 -5.39052,49.749774 1.04565,15.61967 -0.81162,32.45046 3.07428,47.41033 14.63935,3.44239 29.92215,2.86288 44.82552,4.4786 0.64847,14.92491 0.28104,30.1108 0.3867,45.12542 -108.42698,0 -216.85397,0 -325.28096,0 -14.0194,-15.74018 -31.80409,-30.9342 -52.62658,-35.1541 -4.27315,-35.86954 -2.3509,-72.55931 -3.63137,-108.753108 1.27937,-13.590528 -2.75522,-28.702679 2.74354,-41.447899 9.61251,-8.132967 24.42179,-4.410207 36.03009,-6.199022 113.42471,-1.623928 226.88765,-0.415694 340.32275,-0.793128 z M 469.19595,1068.1679 c 33.74817,0.9351 68.05151,-1.7931 101.4651,2.4031 4.2372,31.7218 1.41271,64.3454 2.38333,96.3946 0,27.157 0,54.3141 0,81.4711 -23.81049,3.0027 -51.89461,-2.091 -72.01679,13.862 -6.53207,5.3786 0.36778,20.9781 -10.72889,18.4434 -57.94358,-0.3852 -116.09881,1.7412 -173.91594,-1.2313 -15.60993,-3.4452 -12.93809,-23.1291 -13.26116,-35.2643 1.31939,-9.3762 -3.43144,-24.684 8.7352,-28.7029 23.43374,-8.709 46.96835,-25.0291 55.42423,-49.4659 3.43145,-32.4694 1.92139,-65.3022 3.29878,-97.9098 32.87205,0 65.7441,0 98.61614,0 z"
       id="path895"
       inkscape:connector-curvature="0"
       transform="matrix(0.26458333,0,0,0.26458333,-104.6582,-134.87518)" />
  </g>
</svg>
