<?xml version="1.0" encoding="UTF-8" standalone="no"?>
<!-- Created with Inkscape (http://www.inkscape.org/) -->

<svg
   xmlns:dc="http://purl.org/dc/elements/1.1/"
   xmlns:cc="http://creativecommons.org/ns#"
   xmlns:rdf="http://www.w3.org/1999/02/22-rdf-syntax-ns#"
   xmlns:svg="http://www.w3.org/2000/svg"
   xmlns="http://www.w3.org/2000/svg"
   xmlns:xlink="http://www.w3.org/1999/xlink"
   xmlns:sodipodi="http://sodipodi.sourceforge.net/DTD/sodipodi-0.dtd"
   xmlns:inkscape="http://www.inkscape.org/namespaces/inkscape"
   width="209.31641mm"
   height="377mm"
   viewBox="0 0 209.31641 377"
   version="1.1"
   id="svg5203"
   inkscape:version="0.92.3 (2405546, 2018-03-11)"
   sodipodi:docname="distillation_grey.svg">
  <defs
     id="defs5197">
    <linearGradient
       y2="-513.56293"
       x2="234"
       y1="-513.56293"
       x1="152"
       gradientTransform="matrix(0.26458333,0,0,0.26458333,105.83677,173.89786)"
       gradientUnits="userSpaceOnUse"
       id="linearGradient4595"
       xlink:href="#linearGradient5678" />
    <linearGradient
       id="linearGradient5678">
      <stop
         style="stop-color:#1a1b1f;stop-opacity:1"
         offset="0"
         id="stop5680" />
      <stop
         id="stop5682"
         offset="0.37573075"
         style="stop-color:#7e7e81;stop-opacity:1;" />
      <stop
         style="stop-color:#c7c9cb;stop-opacity:1;"
         offset="0.48529407"
         id="stop5684" />
      <stop
         id="stop5686"
         offset="0.68884188"
         style="stop-color:#f2f2f2;stop-opacity:1;" />
      <stop
         style="stop-color:#555758;stop-opacity:1;"
         offset="0.81408584"
         id="stop5688" />
      <stop
         id="stop5690"
         offset="0.93932986"
         style="stop-color:#bbb9b5;stop-opacity:1;" />
      <stop
         style="stop-color:#949696;stop-opacity:1;"
         offset="1"
         id="stop5692" />
    </linearGradient>
    <radialGradient
       inkscape:collect="always"
       xlink:href="#linearGradient5678"
       id="radialGradient5949"
       cx="504.19199"
       cy="713.59503"
       fx="504.19199"
       fy="713.59503"
       r="287.34268"
       gradientTransform="matrix(1,0,0,2.4631996,0,-1044.1319)"
       gradientUnits="userSpaceOnUse" />
  </defs>
  <sodipodi:namedview
     id="base"
     pagecolor="#ffffff"
     bordercolor="#666666"
     borderopacity="1.0"
     inkscape:pageopacity="0.0"
     inkscape:pageshadow="2"
     inkscape:zoom="0.35"
     inkscape:cx="1510.7982"
     inkscape:cy="404.10926"
     inkscape:document-units="mm"
     inkscape:current-layer="layer1"
     showgrid="false"
     fit-margin-top="0"
     fit-margin-left="0"
     fit-margin-right="0"
     fit-margin-bottom="0"
     inkscape:window-width="1920"
     inkscape:window-height="1046"
     inkscape:window-x="-11"
     inkscape:window-y="-11"
     inkscape:window-maximized="1" />
  <metadata
     id="metadata5200">
    <rdf:RDF>
      <cc:Work
         rdf:about="">
        <dc:format>image/svg+xml</dc:format>
        <dc:type
           rdf:resource="http://purl.org/dc/dcmitype/StillImage" />
        <dc:title></dc:title>
      </cc:Work>
    </rdf:RDF>
  </metadata>
  <g
     inkscape:label="Layer 1"
     inkscape:groupmode="layer"
     id="layer1"
     transform="translate(104.6582,134.87518)">
    <path
       sodipodi:nodetypes="cccccssccssccccc"
       inkscape:connector-curvature="0"
       d="m -8.175898,-79.308813 h 72.261565 l -0.016,-0.479769 v -28.981718 -0.29701 h -5.4355 c -8.2182,0 -14.8344,-1.99849 -14.8344,-5.23848 v -3.37672 l -0.5548,-0.0113 h -63.245666 c -1.334801,0 -2.9089,1.41737 -2.9089,2.75225 v 25.806715 l 0.041,0.469281 c 2.516701,0.40223 4.890899,1.19889 6.912401,2.32946 3.030699,1.74979 5.525,4.183711 7.3333,7.042851 z"
       style="fill:none;stroke:#9ea1a6;stroke-width:2;stroke-linecap:butt;stroke-linejoin:miter;stroke-miterlimit:4;stroke-dasharray:none;stroke-opacity:1"
       id="path4544-4-5-1-5" />
    <path
       sodipodi:nodetypes="sccssccssccccss"
       inkscape:connector-curvature="0"
       d="m 46.0897,151.88686 c 0,3.25459 -0.012,38.67717 -0.012,41.93096 v 0.29703 h -5.4355 c -8.2182,0 -14.8344,2.80933 -14.8344,5.23847 v 3.37672 l -0.5548,0.0114 h -45.254 c -1.3349,0 -2.908999,-1.41737 -2.908999,-2.75225 v -10.99004 l 0.041,-0.46929 c 9.3159,-1.88857 17.353399,-10.53341 17.572101,-17.04499 V 149.1736 H 43.1884 c 2.8901,0 2.8978,-0.003 2.8978,2.71333 z"
       style="fill:none;stroke:#9ea1a6;stroke-width:2;stroke-linecap:butt;stroke-linejoin:miter;stroke-miterlimit:4;stroke-dasharray:none;stroke-opacity:1"
       id="path4544-4-5-9-1-5" />
    <path
       id="path4546-8-7-9-1-7-3"
       style="fill:none;stroke:#9ea1a6;stroke-width:2;stroke-linecap:butt;stroke-linejoin:miter;stroke-miterlimit:4;stroke-dasharray:none;stroke-opacity:1"
       d="m -37.200899,-86.864976 c -6.5742,3.79557 -10.623999,10.810092 -10.623999,18.401244 V 44.876161 c 0,0 1.98e-4,75.973199 -2.01e-4,86.865799 -2.01e-4,10.89258 0,38.48969 0,38.48969 0,7.59114 4.0499,12.1735 10.623999,15.96908 m 2.01e-4,-273.065706 c 2.1038,-1.182971 4.4176,-1.94383 6.7826,-2.328381 l 0.019,-0.470278 c 0,-4.622461 -0.127799,-23.534195 0,-28.154885 0.130399,-4.71075 3.878601,-7.36725 10.030999,-7.36725 h 63.0865 l 0.5548,0.032 v -3.37018 c 0,-2.90213 6.6161,-5.23849 14.8343,-5.23849 h 18.2261 c 8.2182,0 14.8343,2.33636 14.8343,5.23849 v 14.21874 c 0,2.90211 -5.278734,5.21811 -14.8343,5.23848 h -5.3187 l 0.018,0.29703 v 28.518707 l 0.031,0.413599 h 33.5945 l -0.067,7.49237 H -5.1879 l -0.495599,0.0186 c 0.233101,1.261464 0.3536,2.553644 0.3536,3.862972 V 44.875151 c 0,0 10e-5,75.975119 -1.01e-4,86.867849 -2.64e-4,10.89273 0,-1.2167 0,-1.2167 0.027,1.29875 -0.03,11.15463 0.141902,11.15463 H 46.1759 c 3.4581,0 7.3935,3.81942 7.3935,7.27756 0,5.37738 0.149,39.9085 0,44.85947 0,0.0991 -0.018,0.29703 -0.018,0.29703 H 58.87 c 8.2182,0 14.8344,2.33638 14.8344,5.23849 v 14.2187 c 0,1.34647 -1.4242,2.57115 -3.7717,3.49721 l 0.01,0.43826 c 0,3.25377 -0.012,10.1568 -0.012,13.41144 0,2.71632 0.01,2.71333 2.8978,2.71333 h 31.7629 l 0.01,7.49239 h -34.761 c -3.4581,0 -7.3936,-3.81942 -7.3936,-7.27755 v -14.85958 -0.32901 c -1.1447,0.0993 -2.3835,0.12663 -3.5765,0.15203 -6.0739,0.12901 -18.226,0 -18.226,0 -8.2182,0 -14.8344,-2.33635 -14.8344,-5.23852 v -3.37015 l -0.5548,0.032 h -45.6239 c -4.826699,0 -10.031,-2.65409 -10.031,-7.36724 -0.127799,-4.62071 0,-9.24493 0,-13.8674 l -0.019,-0.47027 c -2.364899,-0.38454 -4.678698,-1.1454 -6.782599,-2.32839"
       inkscape:connector-curvature="0"
       sodipodi:nodetypes="csczsccccssccssssscccccccccsczcsssccsssccssccssccccsccscccc" />
    <path
       style="fill:url(#radialGradient5949);fill-opacity:1.0;stroke:#aeafb2;stroke-width:5.71428585;stroke-miterlimit:4;stroke-dasharray:none;stroke-opacity:1"
       d="M 629.42433,8.8652713 C 608.16659,10.57097 578.36947,4.1536465 564.35179,24.585137 c -1.58769,11.097509 -0.95223,21.830746 -16.33903,17.03256 -83.80541,0.693331 -167.79158,0.610351 -251.48463,1.795566 -18.2311,18.150902 -8.0324,46.878371 -11.09336,69.559137 -0.014,20.90029 -0.002,41.8006 -0.006,62.7009 -35.79482,4.27602 -68.68658,37.48702 -63.61049,75 -3.34109,273.31936 -1.73569,546.68513 -1.6631,820.0221 1.97086,35.9506 -2.88905,73.1037 4.90529,108.3819 12.0439,21.5635 35.47101,34.7564 58.96205,40.3125 3.3667,22.5593 -2.49791,47.2671 6.12723,68.7333 14.62858,15.0468 39.13542,9.0082 58.02435,11.262 49.56048,0.4656 99.12254,0.7927 148.68324,1.2547 -3.18869,12.6009 3.32043,25.7087 16.92522,27.3438 40.71074,5.431 82.10397,2.5196 123.07477,4.2689 0.20026,23.4236 -0.38637,47.0207 0.2846,70.3404 10.78994,12.7378 24.26934,18.3927 40.95426,14.9777 36.19805,-0.5351 73.28177,1.068 108.92857,-0.798 7.38697,-23.6478 -11.49106,-22.5143 -29.35629,-21.028 -33.55351,-0.3938 -67.10697,-0.791 -100.66046,-1.1874 1.32623,-22.4795 -4.53748,-46.3314 0.97098,-68.1919 8.44191,-2.9466 13.55305,-10.1699 11.76897,-19.5592 -0.009,-16.0288 0.70343,-32.4235 -0.35155,-48.2031 -23.58802,-12.1116 -51.04188,-9.8563 -76.65737,-11.9252 -0.15688,-60.7042 0.31243,-121.5333 -0.23437,-182.1596 -9.37854,-16.7605 -26.43223,-15.2867 -43.15848,-14.2579 -57.77717,0 -115.55433,0 -173.33148,0 -6.46026,-26.178 -1.57098,-54.37296 -3.65321,-81.25541 -2.20419,-245.70957 -1.86629,-491.43226 -2.61353,-737.14855 138.9815,-0.53339 278.84596,1.06486 417.27679,-0.79799 8.24905,-25.83928 -19.29277,-16.5109 -35.08372,-17.94085 -30.2102,0 -60.4204,0 -90.63057,0 0.18923,-38.48827 0.0295,-78.3328 -0.99331,-116.155132 24.44063,-6.128894 52.61943,-1.93678 75.27903,-15.094866 -0.34849,-20.781945 0.68768,-41.989616 -0.5078,-62.511159 C 702.28379,3.3207587 664.50196,10.743058 629.42433,8.8652713 Z M 565.42879,60.427771 c -1.39572,10.750077 -1.13923,25.48836 12.79577,27.053571 20.91486,5.884743 42.84414,6.129843 64.34708,7.957589 0,39.226189 0,78.452379 0,117.678569 -94.38428,-0.30211 -188.76858,-0.60345 -283.15288,-0.90402 -14.1211,-16.62751 -31.67884,-31.13164 -53.83371,-34.88281 1.23331,-35.75754 -4.52748,-72.63289 1.28906,-107.801336 9.01895,-13.631354 29.11045,-6.096606 42.61693,-8.794271 71.97573,-0.600489 143.95983,-0.178683 215.93775,-0.307292 z M 469.94331,1068.9992 c 33.52236,1.2193 67.98076,-2.2143 100.98214,3.3649 6.15957,53.9394 1.60857,108.871 3.07477,163.1641 4.77194,19.0342 -20.38026,9.5077 -32.2154,12.8851 -16.19226,1.5449 -44.08253,2.7965 -44.66778,24.6964 -5.02719,13.3614 -32.55929,1.9276 -46.26971,5.7221 -45.36968,-1.7542 -91.41202,3.6888 -136.40067,-3.086 -16.69891,-4.8013 -8.23396,-27.2512 -10.23996,-39.3638 -0.7732,-9.1474 0.37661,-20.0148 11.99219,-20.2957 28.0375,-12.1857 58.49775,-36.5282 55.66964,-70.4632 1.33406,-25.5198 0.71027,-51.0829 0.87054,-76.6239 32.40141,0 64.80282,0 97.20424,0 z"
       id="path823"
       inkscape:connector-curvature="0"
       transform="matrix(0.26458333,0,0,0.26458333,-104.6582,-134.87518)" />
  </g>
</svg>
