<?xml version="1.0" encoding="UTF-8" standalone="no"?>
<!-- Created with Inkscape (http://www.inkscape.org/) -->

<svg
   xmlns:dc="http://purl.org/dc/elements/1.1/"
   xmlns:cc="http://creativecommons.org/ns#"
   xmlns:rdf="http://www.w3.org/1999/02/22-rdf-syntax-ns#"
   xmlns:svg="http://www.w3.org/2000/svg"
   xmlns="http://www.w3.org/2000/svg"
   xmlns:xlink="http://www.w3.org/1999/xlink"
   xmlns:sodipodi="http://sodipodi.sourceforge.net/DTD/sodipodi-0.dtd"
   xmlns:inkscape="http://www.inkscape.org/namespaces/inkscape"
   width="604.60602mm"
   height="377mm"
   viewBox="0 0 604.60603 377"
   version="1.1"
   id="svg5203"
   inkscape:version="0.92.3 (2405546, 2018-03-11)"
   sodipodi:docname="distillation_grey.svg">
  <defs
     id="defs5197">
    <linearGradient
       id="linearGradient4705">
      <stop
         id="stop4691"
         offset="0"
         style="stop-color:#1a1b1f;stop-opacity:1" />
      <stop
         style="stop-color:#7e7e81;stop-opacity:1;"
         offset="0.60493368"
         id="stop4693" />
      <stop
         id="stop4695"
         offset="0.61061805"
         style="stop-color:#c7c9cb;stop-opacity:1;" />
      <stop
         style="stop-color:#f2f2f2;stop-opacity:1;"
         offset="0.61418945"
         id="stop4697" />
      <stop
         id="stop4699"
         offset="0.6346693"
         style="stop-color:#555758;stop-opacity:1;" />
      <stop
         style="stop-color:#bbb9b5;stop-opacity:1;"
         offset="0.72678274"
         id="stop4701" />
      <stop
         id="stop4703"
         offset="1"
         style="stop-color:#949696;stop-opacity:1;" />
    </linearGradient>
    <linearGradient
       id="linearGradient4651">
      <stop
         id="stop4637"
         offset="0"
         style="stop-color:#1a1b1f;stop-opacity:1" />
      <stop
         style="stop-color:#7e7e81;stop-opacity:1;"
         offset="0.61900246"
         id="stop4639" />
      <stop
         id="stop4641"
         offset="0.73333329"
         style="stop-color:#c7c9cb;stop-opacity:1;" />
      <stop
         style="stop-color:#f2f2f2;stop-opacity:1;"
         offset="0.73333329"
         id="stop4643" />
      <stop
         id="stop4645"
         offset="0.79459774"
         style="stop-color:#555758;stop-opacity:1;" />
      <stop
         style="stop-color:#bbb9b5;stop-opacity:1;"
         offset="1"
         id="stop4647" />
    </linearGradient>
    <linearGradient
       id="linearGradient4623">
      <stop
         id="stop4609"
         offset="0"
         style="stop-color:#1a1b1f;stop-opacity:0" />
      <stop
         style="stop-color:#7e7e81;stop-opacity:1;"
         offset="0.12735695"
         id="stop4611" />
      <stop
         id="stop4613"
         offset="0.15883836"
         style="stop-color:#c7c9cb;stop-opacity:1;" />
      <stop
         style="stop-color:#f2f2f2;stop-opacity:1;"
         offset="0.1842165"
         id="stop4615" />
      <stop
         id="stop4617"
         offset="0.81408584"
         style="stop-color:#555758;stop-opacity:1;" />
      <stop
         style="stop-color:#bbb9b5;stop-opacity:1;"
         offset="0.93932986"
         id="stop4619" />
      <stop
         id="stop4621"
         offset="1"
         style="stop-color:#949696;stop-opacity:1;" />
    </linearGradient>
    <linearGradient
       id="linearGradient4605">
      <stop
         style="stop-color:#1a1b1f;stop-opacity:1"
         offset="0"
         id="stop4591" />
      <stop
         id="stop4593"
         offset="0.12735695"
         style="stop-color:#7e7e81;stop-opacity:1;" />
      <stop
         style="stop-color:#c7c9cb;stop-opacity:1;"
         offset="0.15883836"
         id="stop4595" />
      <stop
         id="stop4597"
         offset="0.1842165"
         style="stop-color:#f2f2f2;stop-opacity:1;" />
      <stop
         style="stop-color:#555758;stop-opacity:1;"
         offset="0.81408584"
         id="stop4599" />
      <stop
         id="stop4601"
         offset="0.93932986"
         style="stop-color:#bbb9b5;stop-opacity:1;" />
      <stop
         style="stop-color:#949696;stop-opacity:1;"
         offset="1"
         id="stop4603" />
    </linearGradient>
    <linearGradient
       id="linearGradient921">
      <stop
         id="stop907"
         offset="0"
         style="stop-color:#1a1b1f;stop-opacity:1" />
      <stop
         style="stop-color:#7e7e81;stop-opacity:1;"
         offset="0.34522724"
         id="stop909" />
      <stop
         id="stop911"
         offset="0.40836501"
         style="stop-color:#c7c9cb;stop-opacity:1;" />
      <stop
         style="stop-color:#f2f2f2;stop-opacity:1;"
         offset="0.74204803"
         id="stop913" />
      <stop
         id="stop915"
         offset="0.81408584"
         style="stop-color:#555758;stop-opacity:1;" />
      <stop
         style="stop-color:#bbb9b5;stop-opacity:1;"
         offset="0.93932986"
         id="stop917" />
      <stop
         id="stop919"
         offset="1"
         style="stop-color:#949696;stop-opacity:1;" />
    </linearGradient>
    <linearGradient
       y2="-513.56293"
       x2="234"
       y1="-513.56293"
       x1="152"
       gradientTransform="matrix(0.26458333,0,0,0.26458333,105.83677,173.89786)"
       gradientUnits="userSpaceOnUse"
       id="linearGradient4595"
       xlink:href="#linearGradient5678" />
    <linearGradient
       id="linearGradient5678">
      <stop
         style="stop-color:#1a1b1f;stop-opacity:1"
         offset="0"
         id="stop5680" />
      <stop
         id="stop5682"
         offset="0.37573075"
         style="stop-color:#7e7e81;stop-opacity:1;" />
      <stop
         style="stop-color:#c7c9cb;stop-opacity:1;"
         offset="0.48529407"
         id="stop5684" />
      <stop
         id="stop5686"
         offset="0.68884188"
         style="stop-color:#f2f2f2;stop-opacity:1;" />
      <stop
         style="stop-color:#555758;stop-opacity:1;"
         offset="0.81408584"
         id="stop5688" />
      <stop
         id="stop5690"
         offset="0.93932986"
         style="stop-color:#bbb9b5;stop-opacity:1;" />
      <stop
         style="stop-color:#949696;stop-opacity:1;"
         offset="1"
         id="stop5692" />
    </linearGradient>
    <linearGradient
       inkscape:collect="always"
       xlink:href="#linearGradient921"
       id="linearGradient905"
       gradientUnits="userSpaceOnUse"
       x1="-8.5467825"
       y1="698.21576"
       x2="860.85699"
       y2="712.35785"
       gradientTransform="matrix(0.26458333,0,0,0.26458333,92.191936,-134.87518)" />
    <linearGradient
       inkscape:collect="always"
       xlink:href="#linearGradient4605"
       id="linearGradient4589"
       x1="100.33365"
       y1="-0.92786062"
       x2="302.93521"
       y2="-1.683813"
       gradientUnits="userSpaceOnUse" />
    <linearGradient
       inkscape:collect="always"
       xlink:href="#linearGradient4651"
       id="linearGradient4635"
       x1="718.48322"
       y1="433.84198"
       x2="846.79132"
       y2="560.0412"
       gradientUnits="userSpaceOnUse"
       gradientTransform="matrix(0.26458333,0,0,0.26458333,-105.47932,-134.64383)" />
    <linearGradient
       inkscape:collect="always"
       xlink:href="#linearGradient5678"
       id="linearGradient4671"
       x1="787.99164"
       y1="466.97504"
       x2="878.47583"
       y2="526.57404"
       gradientUnits="userSpaceOnUse"
       gradientTransform="matrix(0.26458333,0,0,0.26458333,96.954439,-134.87518)" />
    <linearGradient
       inkscape:collect="always"
       xlink:href="#linearGradient4705"
       id="linearGradient4689"
       x1="1137.2283"
       y1="230.85905"
       x2="1137.1355"
       y2="773.00189"
       gradientUnits="userSpaceOnUse"
       gradientTransform="matrix(0.26458333,0,0,0.26458333,96.954439,-134.87518)" />
  </defs>
  <sodipodi:namedview
     id="base"
     pagecolor="#ffffff"
     bordercolor="#666666"
     borderopacity="1.0"
     inkscape:pageopacity="0.0"
     inkscape:pageshadow="2"
     inkscape:zoom="0.98994949"
     inkscape:cx="524.27627"
     inkscape:cy="626.72436"
     inkscape:document-units="mm"
     inkscape:current-layer="layer1"
     showgrid="false"
     fit-margin-top="0"
     fit-margin-left="0"
     fit-margin-right="0"
     fit-margin-bottom="0"
     inkscape:window-width="1920"
     inkscape:window-height="1046"
     inkscape:window-x="-11"
     inkscape:window-y="-11"
     inkscape:window-maximized="1"
     showguides="false" />
  <metadata
     id="metadata5200">
    <rdf:RDF>
      <cc:Work
         rdf:about="">
        <dc:format>image/svg+xml</dc:format>
        <dc:type
           rdf:resource="http://purl.org/dc/dcmitype/StillImage" />
        <dc:title />
      </cc:Work>
    </rdf:RDF>
  </metadata>
  <g
     inkscape:label="Layer 1"
     inkscape:groupmode="layer"
     id="layer1"
     transform="translate(104.6582,134.87518)">
    <path
       sodipodi:nodetypes="cccccsscsccssccccc"
       inkscape:connector-curvature="0"
       d="m 188.67472,-79.214319 h 83.37455 l -0.016,-0.479769 v -8.873389 -0.29701 h -5.43554 c -8.21824,0 -7.42611,-1.99849 -7.42611,-5.23848 v -21.897553 c -0.16666,-2.14559 2.34151,-2.93072 6.45177,-3.28691 3.81909,-0.33096 6.24291,-0.32716 6.24291,-0.32716 l -0.12693,-7.50973 h -94.88952 c -1.33481,0 -2.90892,1.41737 -2.90892,2.75225 v 35.331719 l 0.041,0.469281 c 2.51672,0.40223 4.89093,1.19889 6.91244,2.32946 3.03072,1.74979 5.52503,4.183711 7.33334,7.042851 z"
       style="fill:none;stroke:#9ea1a6;stroke-width:2;stroke-linecap:butt;stroke-linejoin:miter;stroke-miterlimit:4;stroke-dasharray:none;stroke-opacity:1"
       id="path4544-4-5-1-5" />
    <path
       sodipodi:nodetypes="sccssccssccccss"
       inkscape:connector-curvature="0"
       d="m 242.94063,151.88686 c 0,3.25459 -0.012,38.67717 -0.012,41.93096 v 0.29703 h -5.43553 c -8.21824,0 -14.83448,2.80933 -14.83448,5.23847 v 3.37672 l -0.55481,0.0114 h -45.25426 c -1.33491,0 -2.90902,-1.41737 -2.90902,-2.75225 v -10.99004 l 0.041,-0.46929 c 9.31595,-1.88857 17.3535,-10.53341 17.57221,-17.04499 V 149.1736 h 48.48558 c 2.89011,0 2.89781,-0.003 2.89781,2.71333 z"
       style="fill:none;stroke:#9ea1a6;stroke-width:2;stroke-linecap:butt;stroke-linejoin:miter;stroke-miterlimit:4;stroke-dasharray:none;stroke-opacity:1"
       id="path4544-4-5-9-1-5" />
    <path
       id="path4544-4-5-1-5-4"
       style="fill:none;stroke:#9ea1a6;stroke-width:2;stroke-linecap:butt;stroke-linejoin:miter;stroke-miterlimit:4;stroke-dasharray:none;stroke-opacity:1"
       d="m 279.55741,-79.46564 c -0.0317,4.284634 1.00121,6.785787 -7.21928,7.120616 l -3.5,-1.56e-4 h -5.38737 v 16.236702 l 38.10019,0.361702 -0.12617,6.35 -34.92517,-0.445435 c -9.03369,0.07831 -9.37387,0.345604 -9.52506,-9.970434 V -72.34518 l -65.31181,1.56e-4 -0.4956,0.0186 c 0.2331,1.261464 0.3536,2.553644 0.3536,3.862972 V 44.875151 c 0,0 1e-4,75.975119 -1.1e-4,86.867849 -2.6e-4,10.89273 0,-1.2167 0,-1.2167 0.027,1.29875 -0.03,11.15463 0.14191,11.15463 h 51.36429 c 3.45812,0 7.39355,3.81942 7.39355,7.27756 0,5.37738 0.149,39.9085 0,44.85947 0,0.0991 -0.018,0.29703 -0.018,0.29703 h 5.31863 c 8.21824,0 14.83448,2.33638 14.83448,5.23849 v 14.2187 c 0,1.34647 -1.42421,2.57115 -3.77172,3.49721 l 0.01,0.43826 c 0,3.25377 -0.012,10.1568 -0.012,13.41144 0,2.71632 0.01,2.71333 2.89781,2.71333 h 31.76306 l 0.01,7.49239 h -34.76117 c -3.45812,0 -7.39364,-3.81942 -7.39364,-7.27755 v -14.85958 -0.32901 c -1.14471,0.0993 -2.38352,0.12663 -3.57652,0.15203 -6.07394,0.12901 -18.22611,0 -18.22611,0 -8.21824,0 -14.83448,-2.33635 -14.83448,-5.23852 v -3.37015 l -0.55481,0.032 h -45.62417 c -4.82672,0 -10.03105,-2.65409 -10.03105,-7.36724 -0.1278,-4.62071 0,-9.24493 0,-13.8674 l -0.019,-0.47027 c -2.36491,-0.38454 -4.67873,-1.1454 -6.78264,-2.32839 m 5e-4,-273.065706 c -6.57424,3.79557 -10.62406,10.810092 -10.62406,18.401244 V 44.876161 c 0,0 2e-4,75.973199 -2e-4,86.865799 -2e-4,10.89258 0,38.48969 0,38.48969 0,7.59114 4.04992,12.1735 10.62406,15.96908 m 2e-4,-273.065706 c 2.10381,-1.182971 4.41763,-1.94383 6.78264,-2.328381 l 0.019,-0.470278 c 0,-4.622461 -0.1278,-32.530025 0,-37.150715 0.1304,-4.71075 3.87862,-7.36725 10.03105,-7.36725"
       inkscape:connector-curvature="0"
       sodipodi:nodetypes="ccccccccccccscccsssccsssccssccssccccsccscccccsccccccccc" />
    <path
       sodipodi:nodetypes="cccsscscccc"
       inkscape:connector-curvature="0"
       d="m 279.55741,-79.46564 v -9.402553 -0.29701 h 5.43553 c 8.21824,0 6.89693,-1.99849 6.89693,-5.23848 v -21.368377 c 0.16666,-2.14559 -2.57322,-2.96428 -5.92259,-3.28691 -3.4404,-0.3314 -6.24291,-0.32716 -6.24291,-0.32716 l 0.0635,-6.13612 c 0.0249,-11.37969 -0.0876,-8.11001 -18.29923,-8.77412 l -88.18138,0.11477"
       style="fill:none;stroke:#9ea1a6;stroke-width:2;stroke-linecap:butt;stroke-linejoin:miter;stroke-miterlimit:4;stroke-dasharray:none;stroke-opacity:1"
       id="path4544-4-5-1-5-1" />
    <path
       style="fill:#000000;fill-opacity:0;stroke:#aeafb2;stroke-width:1.06907809;stroke-miterlimit:4;stroke-dasharray:none;stroke-opacity:1"
       d="m 208.9544,-133.14809 c -12.31162,0.25419 -24.69613,-0.46369 -36.96484,0.64833 -3.36975,0.54076 -4.42522,4.02862 -4.3229,7.00917 -0.53077,12.37955 -0.41633,24.77967 -0.66756,37.167564 -7.98017,1.184436 -14.49608,7.656081 -16.57352,15.251067 0.0168,79.3652676 -0.43546,158.732096 -0.0338,238.096429 0.28654,5.10238 -0.7981,11.08218 3.27407,15.04018 3.48158,4.00294 8.38361,6.71031 13.59846,7.64223 0.31343,5.78596 -0.67575,11.86574 0.87385,17.49361 2.67114,4.69239 8.82297,3.31828 13.27263,3.70018 14.08848,0.21217 28.17842,0.31345 42.26755,0.47384 0.086,2.58453 0.16085,5.95839 3.30539,6.66189 5.23201,2.39316 11.29384,0.99166 16.85453,1.51357 5.47878,0.0624 10.95759,0.12177 16.43638,0.18296 0.41972,6.24936 -0.90025,12.82502 1.01271,18.88533 2.60062,4.61047 8.69158,3.12631 13.03362,3.47072 8.61651,-0.097 17.46464,0.29657 25.93364,-0.18833 0.72838,-3.76113 -0.24949,-6.2012 -4.48718,-5.0405 -9.68016,-0.2573 -19.45948,0.37997 -29.07991,-0.67156 -0.97091,-3.07258 -0.35609,-7.46821 -0.70696,-11.05816 0.51669,-2.57556 -1.75093,-6.78489 1.6242,-7.67659 3.32103,-1.27352 1.65824,-5.50108 2.16673,-8.1778 -0.42609,-3.28514 1.32839,-8.40232 -2.58226,-10.12806 -5.5739,-2.2602 -11.82285,-1.4043 -17.68582,-1.94188 -0.14525,-16.17946 -0.10867,-32.39818 -0.36646,-48.55327 -2.11429,-1.61274 -3.68127,-4.68175 -6.80914,-3.71567 -16.48973,-0.19728 -33.08712,0.41359 -49.5151,-0.37169 -2.43891,-0.70927 -1.64799,-4.01206 -1.817,-5.96733 -0.6118,-69.906447 -0.4217,-139.8170386 -0.58949,-209.725434 22.57676,0 45.15351,0 67.73025,0 0.35254,6.9254 -0.71255,14.059252 0.68384,20.873124 1.91211,2.076747 5.42908,0.826429 7.92417,1.321732 11.10568,0.03921 22.40016,0.446923 33.38694,0.104402 1.8949,-4.435316 -1.64406,-4.407204 -5.11467,-4.014261 -10.70295,-0.159523 -21.5431,0.346654 -32.16963,-0.420741 -1.16165,-5.743246 -0.2452,-11.842376 -0.54498,-17.719135 4.99509,-0.52366 10.37928,0.249206 15.15406,-1.439706 1.69292,-2.631541 0.54325,-6.254935 1.02201,-9.214334 0.10339,-3.322823 -1.0027,-7.82266 3.86101,-6.512944 2.64483,-0.355565 5.79735,0.177176 8.16211,-1.084601 0.56105,-8.517281 0.19309,-17.196622 -0.0929,-25.659962 -3.63436,-1.51403 -7.6963,-1.24373 -11.53546,-1.70071 -0.40684,-4.44747 0.82985,-9.3323 -0.8916,-13.54931 -3.55187,-1.4785 -7.78021,-0.54537 -11.57091,-0.92479 -19.15146,-0.13445 -38.30419,-0.0659 -57.45602,-0.0796 z m 15.15929,4.96327 c 16.15389,0 32.30777,0 48.46166,0 0.0908,3.15976 0.18212,6.31954 0.25683,9.47972 -3.66834,0.75763 -7.97602,-0.43885 -11.32248,1.47625 -2.21532,3.38028 -0.79187,7.9149 -1.23906,11.70556 0.29146,4.9677 -0.55516,10.234181 0.71809,15.037052 3.94312,0.899908 8.09331,0.603683 12.1149,0.917694 0,3.735509 0,7.471018 0,11.20653 -28.49569,-0.01934 -56.99137,-0.03918 -85.48707,-0.05951 -3.5501,-4.574726 -8.36714,-8.613228 -14.31675,-9.303279 -0.0927,-12.649717 -0.18562,-25.299427 -0.27876,-37.949137 1.80466,-3.23256 5.23884,-2.53111 8.39085,-2.51088 14.23393,0 28.46786,0 42.70179,0 z m -7.53162,276.35668 c 8.83483,0.20497 17.78478,-0.38611 26.54962,0.59407 1.09583,12.24735 0.32657,24.67192 0.57213,36.98549 -0.35421,3.01416 0.71019,7.44691 -0.53454,9.57056 -6.27793,0.18349 -13.74485,-0.84444 -18.97207,3.42334 -1.76845,1.57049 0.62967,5.73286 -2.40962,5.12813 -15.45226,-0.23336 -31.03064,0.47122 -46.41016,-0.56994 -3.34441,-1.55228 -1.98311,-6.04427 -2.34385,-8.92117 0.63798,-2.46242 -1.70692,-7.21013 2.1152,-7.23296 6.45413,-2.05518 12.5434,-6.86057 14.91394,-13.3259 0.85074,-8.50969 0.37659,-17.10838 0.67653,-25.65162 8.61427,0 17.22855,0 25.84282,0 z"
       id="path883"
       inkscape:connector-curvature="0" />
    <path
       style="fill:url(#linearGradient905);fill-opacity:1;stroke:#aeafb2;stroke-width:1.06907809;stroke-miterlimit:4;stroke-dasharray:none;stroke-opacity:1"
       d="m 171.53269,-132.18613 c -3.33361,2.10691 -3.57213,6.16472 -3.40235,9.70561 -0.3906,11.50083 -0.51816,23.008354 -0.75601,34.512879 -7.09558,1.553187 -14.20157,6.598582 -15.77004,14.00242 -0.9681,22.848625 -0.41304,45.744118 -0.63015,68.610992 0.0552,58.29056 -0.39464,116.585469 0.22823,174.873229 -0.3506,4.06143 0.67757,8.24931 3.81798,11.03154 3.34148,3.40624 7.70739,5.95677 12.49596,6.54182 0.60566,6.06425 -0.49895,12.5205 1.57649,18.34764 2.37778,3.79991 7.68332,2.22289 11.38494,2.80037 14.60586,0.31454 29.21399,0.53377 43.8222,0.70652 -0.62129,3.04826 0.91335,6.45607 4.15941,7.07951 8.78879,1.58887 17.86414,0.64622 26.76051,0.94064 4.12974,-0.77216 6.46068,0.30451 5.45656,4.80904 0.56652,5.10744 -0.65361,10.85337 1.8746,15.53999 3.14803,3.06956 8.1895,1.53826 12.13263,2.05523 8.28224,-0.1732 16.65757,0.51752 24.88752,-0.4036 1.46365,-1.11246 -0.45375,-3.79589 -2.16112,-3.4014 -10.33171,-0.85135 -20.82842,0.1623 -31.09009,-1.14842 -1.17263,-5.88399 -0.71874,-11.98423 -1.12129,-17.95823 1.87123,-1.12532 4.38143,-2.34349 3.76268,-5.01128 -0.11776,-4.15793 0.83663,-8.64527 -0.63477,-12.60137 -3.16848,-2.89904 -8.08474,-2.25369 -12.06165,-2.84496 -2.33622,-0.83058 -7.7352,1.26937 -7.48672,-2.00347 -0.0539,-15.77523 0.10723,-31.59975 -0.0804,-47.34428 -2.41913,-2.34646 -5.048,-4.16023 -8.57043,-3.34296 -15.72449,-0.19738 -31.54411,0.41728 -47.21301,-0.38629 -2.9001,-0.377 -1.68637,-4.36557 -2.15111,-6.30449 -1.11914,-61.953797 -0.65871,-123.924827 -0.7847,-185.886312 0,-8.185475 0,-16.370953 0,-24.556434 22.80331,0 45.60661,0 68.40991,0 0.47825,7.082835 -0.3774,14.396382 1.08892,21.353375 4.00573,1.317392 8.59075,0.538094 12.7965,0.897721 9.22816,0.117957 18.45714,0.156133 27.68565,0.237133 1.35724,-4.116491 -3.70906,-2.695194 -6.22073,-2.951681 -10.47828,-0.235106 -20.99349,-0.08593 -31.4415,-0.818285 -0.75355,-6.00964 -0.56001,-12.093795 -0.81956,-18.14196 5.02048,-1.124157 10.48726,-0.01381 15.31484,-1.741427 1.91231,-4.827032 0.22559,-10.565394 2.30729,-15.293874 3.23249,-1.553459 7.44698,0.327739 10.5071,-1.52427 1.13167,-6.364663 0.28385,-12.999996 0.3357,-19.459046 -0.38523,-1.68029 0.38904,-4.09039 -0.78567,-5.41686 -3.57804,-0.96426 -7.31968,-1.06968 -10.979,-1.55037 -0.27787,-4.35948 0.54465,-9.04561 -0.68801,-13.24446 -7.41457,-1.19418 -15.10256,-0.43314 -22.61467,-0.73113 -27.77709,-0.029 -55.58376,-0.10007 -83.34265,0.0212 z m 101.29887,3.30641 c 0.10217,3.39846 0.83344,6.95583 0.40821,10.28884 -3.56374,1.16182 -7.76031,0.0475 -11.11158,1.7717 -2.28237,3.89398 -1.11799,8.84707 -1.42625,13.16296 0.27666,4.132707 -0.21475,8.585853 0.81341,12.543985 3.87334,0.910799 7.91694,0.757471 11.86015,1.184963 0.17157,3.948883 0.0744,7.966816 0.10231,11.939434 -28.68813,0 -57.37627,0 -86.06442,0 -3.70932,-4.164589 -8.41488,-8.184674 -13.92419,-9.301189 -1.13061,-9.490482 -0.62202,-19.197983 -0.96081,-28.774263 0.3385,-3.59582 -0.72899,-7.59425 0.7259,-10.96642 2.54333,-2.15185 6.46164,-1.16687 9.53302,-1.64016 30.01047,-0.42966 60.03104,-0.10998 90.04425,-0.20985 z m -56.49755,276.62396 c 8.92925,0.24741 18.00539,-0.47442 26.84612,0.63582 1.1211,8.39306 0.37379,17.02472 0.6306,25.5044 0,7.18529 0,14.37061 0,21.5559 -6.2999,0.79446 -13.73053,-0.55324 -19.05455,3.66765 -1.72829,1.42309 0.0973,5.55046 -2.8387,4.87982 -15.331,-0.10192 -30.718,0.46069 -46.01554,-0.32578 -4.13015,-0.91154 -3.42322,-6.11958 -3.5087,-9.33035 0.34909,-2.48078 -0.9079,-6.53097 2.3112,-7.59431 6.20021,-2.30425 12.42712,-6.62228 14.66441,-13.08785 0.90792,-8.59086 0.50838,-17.27787 0.87281,-25.9053 8.69745,0 17.39491,0 26.09235,0 z"
       id="path895"
       inkscape:connector-curvature="0" />
    <path
       id="path4544-4-5-1-5-1-7-5"
       style="fill:none;fill-opacity:1;stroke:#9ea1a6;stroke-width:2;stroke-linecap:butt;stroke-linejoin:miter;stroke-miterlimit:4;stroke-dasharray:none;stroke-opacity:1"
       d="m 304.39755,-21.504176 19.99029,19.5793769 c 0,0 0.0303,10.9386246 0.11043,13.1246641 0.1923,5.245442 4.28063,7.567154 8.36248,7.606429 27.81923,0.267671 55.64423,-0.286679 83.46634,-0.02869 29.57505,0.274244 87.52417,-0.02869 87.52417,-0.02869 l 0.0658,-6.676426 -154.43265,0.114777 c -18.17755,-0.664153 -18.28985,2.605743 -18.26495,-8.774698 l 0.0316,-5.3373661 20.03148,-19.5791669 z"
       inkscape:connector-curvature="0"
       sodipodi:nodetypes="ccsssccccccc" />
    <path
       style="fill:url(#linearGradient4671);fill-opacity:1;stroke:none;stroke-width:2.02030516;stroke-miterlimit:4;stroke-dasharray:none;stroke-opacity:0.86666667"
       d="m 306.93173,-20.538526 c 1.28287,1.857468 3.38577,3.40627 4.97838,5.14672 4.55639,4.423346 9.02165,8.9850936 13.63496,13.3220219 1.59245,-0.1756754 3.43882,0.3478397 4.88241,-0.2437554 6.07806,-6.0586619 12.36159,-11.9891305 18.31209,-18.1273715 -2.21794,-0.424632 -4.8023,-0.05556 -7.15833,-0.180099 -11.49259,-0.0019 -22.98518,-0.0035 -34.47777,-0.0052 z"
       id="path4663"
       inkscape:connector-curvature="0" />
    <path
       style="fill:url(#linearGradient4689);fill-opacity:1;stroke:none;stroke-width:1.42857146;stroke-miterlimit:4;stroke-dasharray:none;stroke-opacity:0.86666667"
       d="m 325.33,-2.181224 c -0.0525,4.7428202 -0.14082,9.5279897 0.1565,14.275244 0.38971,3.335915 3.63991,5.970389 6.98509,5.660411 28.65238,0.247859 57.30687,0.132393 85.96013,0.180412 28.11198,0.0069 56.22396,0.01384 84.33594,0.02077 0.48979,-0.915228 0.0735,-2.317279 0.21151,-3.419134 0.50895,-1.651545 -0.84564,-1.685293 -2.10138,-1.529985 -53.16691,-0.0632 -106.33416,0.01373 -159.50077,-0.176908 -2.76867,-0.09351 -5.58156,0.09799 -8.32435,-0.232082 -1.45018,-0.716359 -2.61619,-2.205617 -2.43802,-3.8919733 -0.22134,-3.6155338 -0.0351,-7.2885563 -0.2916,-10.8723508 -1.63915,-0.053967 -3.37401,-0.1656291 -4.99305,-0.014393 z"
       id="path4681"
       inkscape:connector-curvature="0" />
  </g>
</svg>
