<?xml version="1.0" encoding="UTF-8" standalone="no"?>
<!-- Created with Inkscape (http://www.inkscape.org/) -->

<svg
   xmlns:dc="http://purl.org/dc/elements/1.1/"
   xmlns:cc="http://creativecommons.org/ns#"
   xmlns:rdf="http://www.w3.org/1999/02/22-rdf-syntax-ns#"
   xmlns:svg="http://www.w3.org/2000/svg"
   xmlns="http://www.w3.org/2000/svg"
   xmlns:sodipodi="http://sodipodi.sourceforge.net/DTD/sodipodi-0.dtd"
   xmlns:inkscape="http://www.inkscape.org/namespaces/inkscape"
   width="165.21413mm"
   height="99.198189mm"
   viewBox="0 0 165.21413 99.198189"
   version="1.1"
   id="svg8"
   inkscape:version="0.92.3 (2405546, 2018-03-11)"
   sodipodi:docname="valve2.svg">
  <defs
     id="defs2" />
  <sodipodi:namedview
     id="base"
     pagecolor="#ffffff"
     bordercolor="#666666"
     borderopacity="1.0"
     inkscape:pageopacity="0.0"
     inkscape:pageshadow="2"
     inkscape:zoom="0.98994949"
     inkscape:cx="141.93422"
     inkscape:cy="291.36933"
     inkscape:document-units="mm"
     inkscape:current-layer="layer1"
     showgrid="false"
     inkscape:window-width="1920"
     inkscape:window-height="1046"
     inkscape:window-x="-11"
     inkscape:window-y="-11"
     inkscape:window-maximized="1"
     fit-margin-top="0"
     fit-margin-left="0"
     fit-margin-right="0"
     fit-margin-bottom="0" />
  <metadata
     id="metadata5">
    <rdf:RDF>
      <cc:Work
         rdf:about="">
        <dc:format>image/svg+xml</dc:format>
        <dc:type
           rdf:resource="http://purl.org/dc/dcmitype/StillImage" />
        <dc:title></dc:title>
      </cc:Work>
    </rdf:RDF>
  </metadata>
  <g
     inkscape:label="Layer 1"
     inkscape:groupmode="layer"
     id="layer1"
     transform="translate(-15.472752,-59.75306)">
    <rect
       style="fill:#00517a;fill-opacity:1;stroke:#0d435d;stroke-width:0;stroke-miterlimit:4;stroke-dasharray:none;stroke-opacity:1"
       id="rect4714"
       width="15.501633"
       height="8.8198938"
       x="89.000763"
       y="97.082397" />
    <rect
       style="fill:#b7daeb;fill-opacity:1;stroke:#b7daeb;stroke-width:0.83507675;stroke-miterlimit:4;stroke-dasharray:none;stroke-opacity:1"
       id="rect815"
       width="80.230431"
       height="39.435909"
       x="58.158596"
       y="110.20311" />
    <rect
       style="fill:#b7daeb;fill-opacity:1;stroke:#b7daeb;stroke-width:0.71683216;stroke-miterlimit:4;stroke-dasharray:none;stroke-opacity:1"
       id="rect817"
       width="23.469103"
       height="49.464111"
       x="34.670204"
       y="105.18901" />
    <circle
       style="fill:#b7daeb;fill-opacity:1;stroke:#b7daeb;stroke-width:0.79374999;stroke-miterlimit:4;stroke-dasharray:none;stroke-opacity:1"
       id="path823"
       cx="97.139877"
       cy="129.92107"
       r="27.214285" />
    <rect
       style="fill:#9eacb0;fill-opacity:1;stroke:#9eacb0;stroke-width:0.65537894;stroke-miterlimit:4;stroke-dasharray:none;stroke-opacity:1"
       id="rect815-2"
       width="80.230431"
       height="24.289806"
       x="58.158596"
       y="125.34921" />
    <rect
       style="fill:#b7daeb;fill-opacity:1;stroke:#b7daeb;stroke-width:0.71683216;stroke-miterlimit:4;stroke-dasharray:none;stroke-opacity:1"
       id="rect817-7"
       width="23.469105"
       height="49.464111"
       x="137.85986"
       y="105.18901" />
    <path
       style="fill:#9eacb0;fill-opacity:1;stroke:#9eacb0;stroke-width:0.79374999;stroke-miterlimit:4;stroke-dasharray:none;stroke-opacity:1"
       id="path823-5"
       sodipodi:type="arc"
       sodipodi:cx="-97.018845"
       sodipodi:cy="-131.34009"
       sodipodi:rx="27.214285"
       sodipodi:ry="27.214285"
       sodipodi:start="3.1415927"
       sodipodi:end="0"
       d="m -124.23313,-131.34009 a 27.214285,27.214285 0 0 1 27.214286,-27.21428 27.214285,27.214285 0 0 1 27.214284,27.21428 h -27.214285 z"
       transform="scale(-1)" />
    <path
       style="fill:#9eacb0;fill-opacity:1;stroke:#9eacb0;stroke-width:0.62711233;stroke-miterlimit:4;stroke-dasharray:none;stroke-opacity:1"
       id="path823-5-7"
       sodipodi:type="arc"
       sodipodi:cx="97.018845"
       sodipodi:cy="131.34009"
       sodipodi:rx="21.500994"
       sodipodi:ry="21.500994"
       sodipodi:start="3.1415927"
       sodipodi:end="0"
       d="m 75.517851,131.34009 a 21.500994,21.500994 0 0 1 21.500994,-21.501 21.500994,21.500994 0 0 1 21.500995,21.501 H 97.018845 Z" />
    <g
       id="g4712"
       transform="translate(-76.918152,30.099387)">
      <circle
         r="17.107193"
         cy="49.425594"
         cx="173.86905"
         id="path823-9-6"
         style="fill:none;stroke:#e9b784;stroke-width:0.79374999;stroke-miterlimit:4;stroke-dasharray:none;stroke-opacity:1" />
      <circle
         r="19.508333"
         cy="49.614586"
         cx="174.05803"
         id="path823-9-6-8"
         style="fill:none;stroke:#e9b784;stroke-width:0.90515959;stroke-miterlimit:4;stroke-dasharray:none;stroke-opacity:1" />
      <rect
         y="56.070614"
         x="166.15097"
         height="3.3409004"
         width="16.192091"
         id="rect950"
         style="fill:#9b9b9b;fill-opacity:1;stroke:#9b9b9b;stroke-width:0.47665906;stroke-miterlimit:4;stroke-dasharray:none;stroke-opacity:1" />
      <circle
         r="0.92131698"
         cy="49.968933"
         cx="174.41238"
         id="path954"
         style="fill:#9b9b9b;fill-opacity:1;stroke:#9b9b9b;stroke-width:0.79374999;stroke-miterlimit:4;stroke-dasharray:none;stroke-opacity:1" />
      <path
         transform="scale(0.26458333)"
         inkscape:connector-curvature="0"
         id="path4690"
         d="m 657.24327,112.70103 c -23.66925,0.003 -46.87018,12.13989 -60.44566,31.51376 -14.39384,19.94531 -17.74681,47.14671 -8.8383,70.04733 7.18149,18.95353 22.42861,34.70832 41.2076,42.37684 9.55232,3.97132 19.96872,6.1695 30.33594,5.44537 6.8865,-0.0329 13.77909,-0.79679 20.3361,-2.99115 18.3878,-5.75862 34.5531,-18.60981 43.65716,-35.67045 13.5136,-24.05964 11.93041,-55.62875 -3.88956,-78.23286 -13.77409,-20.29284 -37.81668,-32.88789 -62.36328,-32.48884 z m -0.38435,11.10491 c 6.38587,-0.0859 12.9239,0.47337 19.06459,2.64156 18.9276,5.69978 34.56768,20.88841 40.95338,39.57436 6.8427,19.18825 3.37464,41.73129 -8.63334,57.98706 -12.3506,17.18453 -33.72936,27.34365 -54.86357,25.95007 -22.37021,-1.17312 -43.42174,-15.28674 -53.08356,-35.4855 -4.55493,-9.1736 -6.74447,-19.74946 -6.35254,-29.60938 0.50929,-19.45275 10.66051,-38.59304 26.7627,-49.74748 10.56551,-7.36746 23.14653,-11.74555 36.15234,-11.31069 z"
         style="fill:#e10023;fill-opacity:1;stroke:#ff002a;stroke-width:0;stroke-miterlimit:4;stroke-dasharray:none;stroke-opacity:1" />
    </g>
    <rect
       style="fill:#9eacb0;fill-opacity:1;stroke:#9eacb0;stroke-width:0.45759851;stroke-miterlimit:4;stroke-dasharray:none;stroke-opacity:1"
       id="rect817-6"
       width="23.526505"
       height="20.107754"
       x="34.641502"
       y="134.57407" />
    <rect
       style="fill:#9eacb0;fill-opacity:1;stroke:#9eacb0;stroke-width:1;stroke-miterlimit:4;stroke-dasharray:none;stroke-opacity:1"
       id="rect817-6-3"
       width="23.469101"
       height="20.107754"
       x="137.85986"
       y="134.54536" />
    <rect
       style="fill:#3780a4;fill-opacity:1;stroke:#3780a4;stroke-width:0.35599956;stroke-miterlimit:4;stroke-dasharray:none;stroke-opacity:1"
       id="rect903-4"
       width="4.9274101"
       height="34.877296"
       x="29.415211"
       y="112.48242" />
    <rect
       style="fill:#3780a4;fill-opacity:1;stroke:#3780a4;stroke-width:0.35599956;stroke-miterlimit:4;stroke-dasharray:none;stroke-opacity:1"
       id="rect903-4-5"
       width="4.9274106"
       height="34.877296"
       x="161.81702"
       y="112.48241" />
    <g
       id="g861"
       transform="translate(0.26414905,3.1750001)">
      <g
         transform="matrix(0.69233335,0,0,0.69233335,81.044054,48.970493)"
         id="g4724">
        <path
           id="path956-9"
           style="color:#000000;font-style:normal;font-variant:normal;font-weight:normal;font-stretch:normal;font-size:medium;line-height:normal;font-family:sans-serif;font-variant-ligatures:normal;font-variant-position:normal;font-variant-caps:normal;font-variant-numeric:normal;font-variant-alternates:normal;font-feature-settings:normal;text-indent:0;text-align:start;text-decoration:none;text-decoration-line:none;text-decoration-style:solid;text-decoration-color:#000000;letter-spacing:normal;word-spacing:normal;text-transform:none;writing-mode:lr-tb;direction:ltr;text-orientation:mixed;dominant-baseline:auto;baseline-shift:baseline;text-anchor:start;white-space:normal;shape-padding:0;clip-rule:nonzero;display:inline;overflow:visible;visibility:visible;opacity:1;isolation:auto;mix-blend-mode:normal;color-interpolation:sRGB;color-interpolation-filters:linearRGB;solid-color:#000000;solid-opacity:1;vector-effect:none;fill:none;fill-opacity:1;fill-rule:nonzero;stroke:#0d435d;stroke-width:0.5291667;stroke-linecap:butt;stroke-linejoin:miter;stroke-miterlimit:4;stroke-dasharray:none;stroke-dashoffset:0;stroke-opacity:1;color-rendering:auto;image-rendering:auto;shape-rendering:auto;text-rendering:auto;enable-background:accumulate"
           d="m 22.933594,29.322266 c -4.090467,0 -7.74551,2.558562 -9.144532,6.402343 l 0.498047,0.181641 c 1.323558,-3.636446 4.77666,-6.054688 8.646485,-6.054688 3.869825,0 7.324879,2.418242 8.648437,6.054688 l 0.498047,-0.181641 c -1.399022,-3.843781 -5.056017,-6.402343 -9.146484,-6.402343 z m -0.06641,-9.265625 c -7.816999,0 -14.8010391,4.890751 -17.4746099,12.236328 l 0.4980469,0.18164 c 2.5981068,-7.138241 9.380205,-11.888672 16.976563,-11.888671 7.596357,0 14.380408,4.75043 16.978515,11.888671 l 0.496094,-0.18164 C 37.668226,24.947392 30.684186,20.056641 22.867188,20.056641 Z"
           inkscape:connector-curvature="0"
           sodipodi:nodetypes="sccsccssccsccss" />
        <path
           style="fill:#e9b784;fill-opacity:1;stroke:#0d435d;stroke-width:1.05833328;stroke-linecap:butt;stroke-linejoin:miter;stroke-miterlimit:4;stroke-dasharray:none;stroke-opacity:1"
           d="m 32.080078,35.724607 c 7.765621,-3.249998 7.765621,-3.249998 7.765621,-3.249998"
           id="path836"
           inkscape:connector-curvature="0" />
        <path
           style="fill:none;stroke:#0d435d;stroke-width:0.26458332px;stroke-linecap:butt;stroke-linejoin:miter;stroke-opacity:1"
           d="M 13.789062,35.724607 Z"
           id="path838"
           inkscape:connector-curvature="0" />
        <path
           style="fill:#e9b784;fill-opacity:1;stroke:#0d435d;stroke-width:1.05833328;stroke-linecap:butt;stroke-linejoin:miter;stroke-miterlimit:4;stroke-dasharray:none;stroke-opacity:1"
           d="M 13.789062,35.724607 C 5.8906208,32.474609 5.8906208,32.474609 5.8906208,32.474609"
           id="path840"
           inkscape:connector-curvature="0" />
      </g>
      <path
         inkscape:connector-curvature="0"
         id="path4848"
         d="m 93.880954,70.275829 c -3.79444,-5.23371 -3.79444,-5.299131 -3.79444,-5.299131"
         style="fill:none;stroke:#000000;stroke-width:0.18317986px;stroke-linecap:butt;stroke-linejoin:miter;stroke-opacity:1" />
      <path
         inkscape:connector-curvature="0"
         id="path4850"
         d="m 99.965144,70.210409 c 3.467326,-5.16829 3.467326,-5.16829 3.467326,-5.16829"
         style="fill:none;stroke:#000000;stroke-width:0.18317986px;stroke-linecap:butt;stroke-linejoin:miter;stroke-opacity:1" />
    </g>
    <path
       style="fill:#00bb00;fill-opacity:1;stroke:#00bb00;stroke-width:2.02030516;stroke-miterlimit:4;stroke-dasharray:none;stroke-opacity:1"
       d="m 333.057,284.38971 c -3.99468,-1.74992 -7.55766,-3.48692 -7.91774,-3.85999 -1.96575,-2.03668 13.19445,-20.50949 16.27535,-19.83162 0.76711,0.16878 3.84878,3.70655 6.84816,7.86171 l 5.45341,7.55483 -4.36857,3.84537 c -2.40272,2.11495 -4.65198,4.73831 -4.99837,5.82969 -0.83166,2.62033 -2.62128,2.39845 -11.29224,-1.39999 z"
       id="path854"
       inkscape:connector-curvature="0"
       transform="scale(0.26458333)" />
    <path
       style="fill:#ffbb00;fill-opacity:1;stroke:#ffbb00;stroke-width:2.02030516;stroke-miterlimit:4;stroke-dasharray:none;stroke-opacity:1"
       d="m 349.36181,267.20283 c -6.96679,-9.55901 -6.98839,-9.49426 4.31334,-12.92989 5.48583,-1.66764 8.67701,-1.99711 15.65737,-1.61654 8.73313,0.47614 20.38399,3.86104 20.38399,5.92212 0,0.53015 -2.38649,4.51884 -5.3033,8.86375 l -5.30331,7.89984 -3.53553,-1.28334 c -4.64136,-1.68473 -11.6926,-1.68176 -16.42496,0.007 l -3.79805,1.35529 -5.98955,-8.21816 z"
       id="path856"
       inkscape:connector-curvature="0"
       transform="scale(0.26458333)" />
    <path
       style="fill:#ff5a00;fill-opacity:1;stroke:#ff5a00;stroke-width:2.02030516;stroke-miterlimit:4;stroke-dasharray:none;stroke-opacity:1"
       d="m 390.233,285.7897 c -0.34639,-1.09138 -2.62743,-3.74271 -5.06897,-5.89184 l -4.43918,-3.90752 5.53648,-8.26951 c 4.62561,-6.90899 5.82623,-8.11444 7.29764,-7.32697 3.11922,1.66935 12.03085,11.74163 14.26733,16.12548 l 2.17045,4.25445 -3.82667,1.57181 c -2.10466,0.8645 -5.81637,2.43955 -8.24822,3.50012 -5.57289,2.43041 -6.90277,2.42073 -7.68886,-0.056 z"
       id="path858"
       inkscape:connector-curvature="0"
       transform="scale(0.26458333)" />
    <g
       id="g4705"
       transform="translate(1.511898,201.84472)">
      <path
         inkscape:connector-curvature="0"
         id="path4574"
         d="m 94.370682,-96.009196 c -8.027686,0.11295 -15.450425,4.98088 -19.624545,11.70063 -5.236824,8.481586 -4.438642,20.363502 2.170462,27.907141 5.253175,6.504159 14.043718,10.150718 22.333685,8.515813 12.555056,-1.454992 22.145916,-14.256406 20.456376,-26.701324 -1.09217,-10.83953 -10.25972,-20.24896 -21.163475,-21.27756 -1.384467,-0.16377 -2.780361,-0.1784 -4.172503,-0.1447 z m 0.925748,7.11363 c 8.97112,-0.33387 17.5137,7.213285 17.8077,16.323109 0.591,9.165376 -7.4245,17.583118 -16.53643,17.783064 -9.553477,0.864626 -18.627428,-7.47146 -18.574017,-17.01087 -0.01389,-9.218673 8.134741,-17.195893 17.302747,-17.095303 z"
         style="fill:#ff2044;fill-opacity:1;stroke:#e98495;stroke-width:0;stroke-miterlimit:4;stroke-dasharray:none;stroke-opacity:1" />
      <circle
         r="4.1577377"
         cy="-92.693443"
         cx="95.773911"
         id="path4612"
         style="fill:#fe6f85;fill-opacity:1;stroke:#ff002a;stroke-width:0;stroke-miterlimit:4;stroke-dasharray:none;stroke-opacity:1" />
      <circle
         r="4.1577377"
         cy="-51.153866"
         cx="95.773911"
         id="path4612-9"
         style="fill:#fe6f85;fill-opacity:1;stroke:#ff002a;stroke-width:0;stroke-miterlimit:4;stroke-dasharray:none;stroke-opacity:1" />
      <circle
         r="4.1577377"
         cy="-71.677444"
         cx="74.839287"
         id="path4612-6"
         style="fill:#fe6f85;fill-opacity:1;stroke:#ff002a;stroke-width:0;stroke-miterlimit:4;stroke-dasharray:none;stroke-opacity:1" />
      <circle
         r="4.1577377"
         cy="-71.677444"
         cx="116.41667"
         id="path4612-4"
         style="fill:#fe6f85;fill-opacity:1;stroke:#ff002a;stroke-width:0;stroke-miterlimit:4;stroke-dasharray:none;stroke-opacity:1" />
      <rect
         transform="rotate(90)"
         y="-98.054054"
         x="-90.59127"
         height="4.9136906"
         width="14.741072"
         id="rect4641-6"
         style="fill:#fe6f85;fill-opacity:1;stroke:#ff002a;stroke-width:0;stroke-miterlimit:4;stroke-dasharray:none;stroke-opacity:1" />
      <rect
         transform="rotate(90)"
         y="-98.054054"
         x="-68.569641"
         height="4.9136906"
         width="14.741072"
         id="rect4641-6-3"
         style="fill:#fe6f85;fill-opacity:1;stroke:#ff002a;stroke-width:0;stroke-miterlimit:4;stroke-dasharray:none;stroke-opacity:1" />
      <rect
         y="-74.075127"
         x="99.449539"
         height="4.9136906"
         width="14.741072"
         id="rect4641-7"
         style="fill:#fe6f85;fill-opacity:1;stroke:#ff002a;stroke-width:0;stroke-miterlimit:4;stroke-dasharray:none;stroke-opacity:1" />
      <rect
         y="-74.075127"
         x="77.870125"
         height="4.9136906"
         width="14.741072"
         id="rect4641"
         style="fill:#fe6f85;fill-opacity:1;stroke:#ff002a;stroke-width:0;stroke-miterlimit:4;stroke-dasharray:none;stroke-opacity:1" />
      <circle
         r="6.1534553"
         cy="-71.639633"
         cx="95.822525"
         id="path823-9-0"
         style="fill:none;stroke:#ff2044;stroke-width:0.71691686;stroke-miterlimit:4;stroke-dasharray:none;stroke-opacity:1" />
      <circle
         r="3.6176913"
         cy="-71.639633"
         cx="95.822525"
         id="path823-9-0-4"
         style="fill:#ffa120;fill-opacity:1;stroke:#ffa120;stroke-width:0.71691686;stroke-miterlimit:4;stroke-dasharray:none;stroke-opacity:1" />
      <path
         inkscape:connector-curvature="0"
         id="path4576"
         d="m 95.335855,-75.674579 c -3.242897,-0.0869 -4.921062,4.193273 -2.968154,6.575769 1.664264,2.420578 5.706089,1.877534 6.838342,-0.779362 1.458587,-2.728897 -0.800997,-6.006494 -3.870188,-5.796407 z"
         style="fill:#ffa120;fill-opacity:1;stroke:#ff2044;stroke-width:0;stroke-miterlimit:4;stroke-dasharray:none;stroke-opacity:1" />
      <path
         transform="scale(0.26458333)"
         inkscape:connector-curvature="0"
         id="path4580"
         d="m 361.57626,-293.17401 c -14.93508,-0.005 -26.10049,16.96038 -20.21291,30.69522 5.11333,14.13576 25.30532,18.58391 35.97485,8.02597 10.61499,-9.5462 8.69787,-29.18259 -4.27934,-35.83674 -3.45322,-2.0255 -7.48257,-3.03411 -11.4826,-2.88445 z m 0.68857,8.07924 c 11.50496,-0.79156 19.10981,14.68036 11.29516,23.32229 -6.0099,8.45468 -20.8363,7.31041 -24.5179,-2.66348 -3.59308,-8.15136 1.06956,-20.30663 11.08208,-20.54438 0.71146,-0.0745 1.42609,-0.0983 2.14066,-0.11443 z"
         style="fill:#ff2044;fill-opacity:1;stroke:#ff2044;stroke-width:0;stroke-miterlimit:4;stroke-dasharray:none;stroke-opacity:1" />
    </g>
    <path
       style="fill:#ffffff;fill-opacity:1;stroke:#ffffff;stroke-width:2.02030516;stroke-miterlimit:4;stroke-dasharray:none;stroke-opacity:1"
       d="m 299.41701,136.99249 c -16.75117,-2.22174 -33.87047,-13.05991 -43.20935,-27.3557 -8.59903,-13.163229 -11.48849,-23.836044 -10.53917,-38.928528 1.70644,-27.129184 20.48678,-49.890575 46.82488,-56.750777 7.61132,-1.982497 23.15586,-1.949136 30.93403,0.06639 38.66408,10.018871 58.28504,53.371641 40.2896,89.020415 -11.79737,23.37047 -38.35097,37.38986 -64.29999,33.9482 z m 41.92133,-31.11516 v -7.576149 h -31.8198 -31.81981 v 7.576149 7.57614 h 31.81981 31.8198 z M 313.48699,80.551357 c 2.40496,-2.404957 1.96566,-6.199408 -0.938,-8.101957 -2.33938,-1.532822 -2.71138,-1.532822 -5.05076,0 -4.2644,2.794143 -2.46727,9.68934 2.52538,9.68934 1.0318,0 2.59032,-0.714322 3.46338,-1.587383 z M 287.80026,64.60329 c 0,-0.755156 1.82661,-3.448157 4.05915,-5.984449 10.19482,-11.581927 28.28674,-10.157625 36.17569,2.847962 1.77101,2.919662 3.41561,4.456598 4.79121,4.477568 1.97127,0.03005 16.81628,-6.110942 21.16636,-8.755968 1.94115,-1.180298 1.90479,-1.383547 -1.40081,-7.829576 -12.10399,-23.603255 -41.66452,-33.297973 -65.80176,-21.580445 -8.55569,4.153399 -18.85095,14.352052 -22.65544,22.442845 -3.27875,6.972733 -4.03499,6.028365 9.52346,11.892688 9.0761,3.925612 14.14214,4.817362 14.14214,2.489375 z"
       id="path914"
       inkscape:connector-curvature="0"
       transform="matrix(0.26458333,0,0,0.26458333,15.472752,59.75306)" />
  </g>
</svg>
